<mxfile host="app.diagrams.net" modified="2022-07-23T11:15:18.440Z" agent="5.0 (Windows NT 10.0; Win64; x64) AppleWebKit/537.36 (KHTML, like Gecko) Chrome/103.0.5060.114 Safari/537.36 Edg/103.0.1264.62" etag="fjUmbLt0ZP9EUB4KhOa-" version="20.2.0" type="github">
  <diagram id="AuFedEMOQw4ieeK1-Sm2" name="Seite-1">
    <mxGraphModel dx="1422" dy="772" grid="1" gridSize="10" guides="1" tooltips="1" connect="1" arrows="1" fold="1" page="1" pageScale="1" pageWidth="827" pageHeight="1169" math="0" shadow="0">
      <root>
        <mxCell id="0" />
        <mxCell id="1" parent="0" />
        <mxCell id="9iTthBQcHJwAkOhHGdQZ-31" value="" style="edgeStyle=orthogonalEdgeStyle;rounded=0;orthogonalLoop=1;jettySize=auto;html=1;" edge="1" parent="1" source="9iTthBQcHJwAkOhHGdQZ-1" target="9iTthBQcHJwAkOhHGdQZ-30">
          <mxGeometry relative="1" as="geometry" />
        </mxCell>
        <mxCell id="9iTthBQcHJwAkOhHGdQZ-33" value="" style="edgeStyle=orthogonalEdgeStyle;rounded=0;orthogonalLoop=1;jettySize=auto;html=1;" edge="1" parent="1" source="9iTthBQcHJwAkOhHGdQZ-1" target="9iTthBQcHJwAkOhHGdQZ-32">
          <mxGeometry relative="1" as="geometry" />
        </mxCell>
        <mxCell id="9iTthBQcHJwAkOhHGdQZ-1" value="Localhost" style="shape=cylinder3;whiteSpace=wrap;html=1;boundedLbl=1;backgroundOutline=1;size=15;" vertex="1" parent="1">
          <mxGeometry x="40" y="30" width="150" height="140" as="geometry" />
        </mxCell>
        <mxCell id="9iTthBQcHJwAkOhHGdQZ-10" value="Payroll" style="swimlane;fontStyle=0;childLayout=stackLayout;horizontal=1;startSize=40;fillColor=none;horizontalStack=0;resizeParent=1;resizeParentMax=0;resizeLast=0;collapsible=1;marginBottom=0;strokeWidth=2;" vertex="1" parent="1">
          <mxGeometry x="240" y="192" width="140" height="196" as="geometry">
            <mxRectangle x="60" y="280" width="120" height="40" as="alternateBounds" />
          </mxGeometry>
        </mxCell>
        <mxCell id="9iTthBQcHJwAkOhHGdQZ-11" value="ID" style="text;strokeColor=none;fillColor=none;align=left;verticalAlign=top;spacingLeft=4;spacingRight=4;overflow=hidden;rotatable=0;points=[[0,0.5],[1,0.5]];portConstraint=eastwest;fontStyle=4" vertex="1" parent="9iTthBQcHJwAkOhHGdQZ-10">
          <mxGeometry y="40" width="140" height="26" as="geometry" />
        </mxCell>
        <mxCell id="9iTthBQcHJwAkOhHGdQZ-12" value="Date" style="text;strokeColor=none;fillColor=none;align=left;verticalAlign=top;spacingLeft=4;spacingRight=4;overflow=hidden;rotatable=0;points=[[0,0.5],[1,0.5]];portConstraint=eastwest;" vertex="1" parent="9iTthBQcHJwAkOhHGdQZ-10">
          <mxGeometry y="66" width="140" height="26" as="geometry" />
        </mxCell>
        <mxCell id="9iTthBQcHJwAkOhHGdQZ-13" value="What" style="text;strokeColor=none;fillColor=none;align=left;verticalAlign=top;spacingLeft=4;spacingRight=4;overflow=hidden;rotatable=0;points=[[0,0.5],[1,0.5]];portConstraint=eastwest;" vertex="1" parent="9iTthBQcHJwAkOhHGdQZ-10">
          <mxGeometry y="92" width="140" height="26" as="geometry" />
        </mxCell>
        <mxCell id="9iTthBQcHJwAkOhHGdQZ-14" value="Paid" style="text;strokeColor=none;fillColor=none;align=left;verticalAlign=top;spacingLeft=4;spacingRight=4;overflow=hidden;rotatable=0;points=[[0,0.5],[1,0.5]];portConstraint=eastwest;" vertex="1" parent="9iTthBQcHJwAkOhHGdQZ-10">
          <mxGeometry y="118" width="140" height="26" as="geometry" />
        </mxCell>
        <mxCell id="9iTthBQcHJwAkOhHGdQZ-15" value="UserID" style="text;strokeColor=none;fillColor=none;align=left;verticalAlign=top;spacingLeft=4;spacingRight=4;overflow=hidden;rotatable=0;points=[[0,0.5],[1,0.5]];portConstraint=eastwest;fontStyle=2" vertex="1" parent="9iTthBQcHJwAkOhHGdQZ-10">
          <mxGeometry y="144" width="140" height="26" as="geometry" />
        </mxCell>
        <mxCell id="9iTthBQcHJwAkOhHGdQZ-16" value="ReasonID" style="text;strokeColor=none;fillColor=none;align=left;verticalAlign=top;spacingLeft=4;spacingRight=4;overflow=hidden;rotatable=0;points=[[0,0.5],[1,0.5]];portConstraint=eastwest;fontStyle=2" vertex="1" parent="9iTthBQcHJwAkOhHGdQZ-10">
          <mxGeometry y="170" width="140" height="26" as="geometry" />
        </mxCell>
        <mxCell id="9iTthBQcHJwAkOhHGdQZ-17" value="User" style="swimlane;fontStyle=0;childLayout=stackLayout;horizontal=1;startSize=26;fillColor=none;horizontalStack=0;resizeParent=1;resizeParentMax=0;resizeLast=0;collapsible=1;marginBottom=0;strokeWidth=2;" vertex="1" parent="1">
          <mxGeometry x="500" y="190" width="140" height="104" as="geometry" />
        </mxCell>
        <mxCell id="9iTthBQcHJwAkOhHGdQZ-18" value="UserID" style="text;strokeColor=none;fillColor=none;align=left;verticalAlign=top;spacingLeft=4;spacingRight=4;overflow=hidden;rotatable=0;points=[[0,0.5],[1,0.5]];portConstraint=eastwest;fontStyle=4" vertex="1" parent="9iTthBQcHJwAkOhHGdQZ-17">
          <mxGeometry y="26" width="140" height="26" as="geometry" />
        </mxCell>
        <mxCell id="9iTthBQcHJwAkOhHGdQZ-19" value="Firstname" style="text;strokeColor=none;fillColor=none;align=left;verticalAlign=top;spacingLeft=4;spacingRight=4;overflow=hidden;rotatable=0;points=[[0,0.5],[1,0.5]];portConstraint=eastwest;" vertex="1" parent="9iTthBQcHJwAkOhHGdQZ-17">
          <mxGeometry y="52" width="140" height="26" as="geometry" />
        </mxCell>
        <mxCell id="9iTthBQcHJwAkOhHGdQZ-20" value="Lastname" style="text;strokeColor=none;fillColor=none;align=left;verticalAlign=top;spacingLeft=4;spacingRight=4;overflow=hidden;rotatable=0;points=[[0,0.5],[1,0.5]];portConstraint=eastwest;" vertex="1" parent="9iTthBQcHJwAkOhHGdQZ-17">
          <mxGeometry y="78" width="140" height="26" as="geometry" />
        </mxCell>
        <mxCell id="9iTthBQcHJwAkOhHGdQZ-21" value="Reason" style="swimlane;fontStyle=0;childLayout=stackLayout;horizontal=1;startSize=26;fillColor=none;horizontalStack=0;resizeParent=1;resizeParentMax=0;resizeLast=0;collapsible=1;marginBottom=0;strokeWidth=2;" vertex="1" parent="1">
          <mxGeometry x="500" y="336" width="140" height="104" as="geometry" />
        </mxCell>
        <mxCell id="9iTthBQcHJwAkOhHGdQZ-22" value="ReasonID" style="text;strokeColor=none;fillColor=none;align=left;verticalAlign=top;spacingLeft=4;spacingRight=4;overflow=hidden;rotatable=0;points=[[0,0.5],[1,0.5]];portConstraint=eastwest;fontStyle=4" vertex="1" parent="9iTthBQcHJwAkOhHGdQZ-21">
          <mxGeometry y="26" width="140" height="26" as="geometry" />
        </mxCell>
        <mxCell id="9iTthBQcHJwAkOhHGdQZ-23" value="Name" style="text;strokeColor=none;fillColor=none;align=left;verticalAlign=top;spacingLeft=4;spacingRight=4;overflow=hidden;rotatable=0;points=[[0,0.5],[1,0.5]];portConstraint=eastwest;" vertex="1" parent="9iTthBQcHJwAkOhHGdQZ-21">
          <mxGeometry y="52" width="140" height="26" as="geometry" />
        </mxCell>
        <mxCell id="9iTthBQcHJwAkOhHGdQZ-24" value="UserID" style="text;strokeColor=none;fillColor=none;align=left;verticalAlign=top;spacingLeft=4;spacingRight=4;overflow=hidden;rotatable=0;points=[[0,0.5],[1,0.5]];portConstraint=eastwest;fontStyle=2" vertex="1" parent="9iTthBQcHJwAkOhHGdQZ-21">
          <mxGeometry y="78" width="140" height="26" as="geometry" />
        </mxCell>
        <mxCell id="9iTthBQcHJwAkOhHGdQZ-25" style="edgeStyle=orthogonalEdgeStyle;rounded=0;orthogonalLoop=1;jettySize=auto;html=1;entryX=0;entryY=0.5;entryDx=0;entryDy=0;" edge="1" parent="1" source="9iTthBQcHJwAkOhHGdQZ-15" target="9iTthBQcHJwAkOhHGdQZ-18">
          <mxGeometry relative="1" as="geometry" />
        </mxCell>
        <mxCell id="9iTthBQcHJwAkOhHGdQZ-26" style="edgeStyle=orthogonalEdgeStyle;rounded=0;orthogonalLoop=1;jettySize=auto;html=1;entryX=0;entryY=0.5;entryDx=0;entryDy=0;" edge="1" parent="1" source="9iTthBQcHJwAkOhHGdQZ-16" target="9iTthBQcHJwAkOhHGdQZ-22">
          <mxGeometry relative="1" as="geometry" />
        </mxCell>
        <mxCell id="9iTthBQcHJwAkOhHGdQZ-29" style="edgeStyle=orthogonalEdgeStyle;rounded=0;orthogonalLoop=1;jettySize=auto;html=1;entryX=1;entryY=0.5;entryDx=0;entryDy=0;" edge="1" parent="1" source="9iTthBQcHJwAkOhHGdQZ-24" target="9iTthBQcHJwAkOhHGdQZ-18">
          <mxGeometry relative="1" as="geometry">
            <Array as="points">
              <mxPoint x="660" y="427" />
              <mxPoint x="660" y="229" />
            </Array>
          </mxGeometry>
        </mxCell>
        <mxCell id="9iTthBQcHJwAkOhHGdQZ-30" value="Projekt&lt;br&gt;DNW" style="shape=cylinder3;whiteSpace=wrap;html=1;boundedLbl=1;backgroundOutline=1;size=15;" vertex="1" parent="1">
          <mxGeometry x="160" y="240" width="50" height="80" as="geometry" />
        </mxCell>
        <mxCell id="9iTthBQcHJwAkOhHGdQZ-32" value="&lt;br&gt;Projekt&lt;br&gt;digiblue" style="shape=cylinder3;whiteSpace=wrap;html=1;boundedLbl=1;backgroundOutline=1;size=15;" vertex="1" parent="1">
          <mxGeometry x="80" y="530" width="70" height="90" as="geometry" />
        </mxCell>
      </root>
    </mxGraphModel>
  </diagram>
</mxfile>
